<?xml version="1.0" encoding="UTF-8" standalone="no"?> <svg xmlns="http://www.w3.org/2000/svg" viewBox="0 0 64 64"><g id="Layer_5" data-name="Layer 5"><path d="M54.68,10.85A18.3,18.3,0,0,0,32,8.35C14.77-2.17-4.07,18.09,7.54,34.58c-.15.53,22.22,22.31,23.05,23.33a2,2,0,0,0,2.83,0L54.68,36.64a18.2,18.2,0,0,0,0-25.79ZM53.24,32.21c.41,0-20.81,20.94-21.24,21.46-.53-.57-21.55-21.36-21.24-21.47C3.86,23,10.69,9.36,22.23,9.51a14,14,0,0,1,8.56,2.86,2.3,2.3,0,0,0,.83.37,2,2,0,0,0,1.59-.37C46.5,2.8,62.7,18.83,53.24,32.21Z"/></g></svg>